<svg xmlns="http://www.w3.org/2000/svg" viewBox="0 0 512 512" role="img" aria-labelledby="title desc">
  <title id="title">WhatsBlasting logo</title>
  <desc id="desc">A modern green chat bubble with a lightning blast and WB monogram.</desc>
  <defs>
    <linearGradient id="bg" x1="82" y1="64" x2="430" y2="450" gradientUnits="userSpaceOnUse">
      <stop offset="0" stop-color="#5eead4" />
      <stop offset="0.42" stop-color="#22c55e" />
      <stop offset="1" stop-color="#15803d" />
    </linearGradient>
    <linearGradient id="bolt" x1="173" y1="119" x2="344" y2="365" gradientUnits="userSpaceOnUse">
      <stop offset="0" stop-color="#ffffff" />
      <stop offset="1" stop-color="#dcfce7" />
    </linearGradient>
    <filter id="softShadow" x="28" y="36" width="456" height="456" color-interpolation-filters="sRGB">
      <feDropShadow dx="0" dy="22" stdDeviation="24" flood-color="#064e3b" flood-opacity="0.28" />
    </filter>
  </defs>

  <rect width="512" height="512" rx="116" fill="#ecfdf5" />
  <circle cx="408" cy="102" r="30" fill="#bbf7d0" opacity="0.95" />
  <circle cx="101" cy="407" r="24" fill="#a7f3d0" opacity="0.8" />

  <path
    filter="url(#softShadow)"
    fill="url(#bg)"
    d="M256 72c-102.7 0-186 74.6-186 166.7 0 51.9 26.5 98.2 68.2 128.7l-18.6 67.7c-3 10.8 8.5 19.8 18.5 14.6l76.1-39.5c13.4 3 27.4 4.6 41.8 4.6 102.7 0 186-74.6 186-166.7S358.7 72 256 72Z"
  />

  <path
    fill="#064e3b"
    opacity="0.14"
    d="M168 352c-37-27-60-67-60-112 0-83 72-150 162-150 39 0 75 13 103 34-31-30-73-48-119-48-99 0-179 72-179 161 0 48 24 91 62 121l-17 63 48-69Z"
  />

  <path
    fill="url(#bolt)"
    d="M286.6 132.8c8.5 2.7 12.7 12.2 8.8 20.2l-39.8 81.5h76.9c12.5 0 19.2 14.8 10.9 24.2L223.7 394.6c-6.3 7.2-18.1 1.3-16.1-8.1l20.3-95.6h-55.4c-11.3 0-18.2-12.5-12.1-22l109.4-170.1c5.1-7.9 17.1-5.8 19.2 3.3l-2.4 30.7Z"
  />

  <path
    fill="#052e16"
    d="M185.2 245.7h30.4l10.9 53.1 16.1-53.1h24.8l16 53.1 11-53.1h30.1l-23.4 96.6h-31.2l-15-48.8-14.9 48.8h-31.2l-23.6-96.6Z"
    opacity="0.93"
  />
  <path
    fill="#ffffff"
    d="M340 181c0 11-8.9 20-20 20s-20-9-20-20 8.9-20 20-20 20 9 20 20Zm-157 3c0 8.8-7.2 16-16 16s-16-7.2-16-16 7.2-16 16-16 16 7.2 16 16Z"
    opacity="0.82"
  />
</svg>
